<svg width="89" height="28" viewBox="0 0 89 28" fill="none" xmlns="http://www.w3.org/2000/svg">
<path d="M0.777344 27V1.30078H7.75586V27H0.777344ZM20.166 27H13.3281V1.30078H28.5156V6.87305H20.166V11.7773H27.8652V17.3496H20.166V27ZM43.9316 27L38.6758 8.49023H38.5176C38.7637 11.6426 38.8867 14.0918 38.8867 15.8379V27H32.7344V1.30078H41.9805L47.3418 19.5469H47.4824L52.7383 1.30078H62.002V27H55.6211V15.7324C55.6211 15.1465 55.627 14.4961 55.6387 13.7812C55.6621 13.0664 55.7441 11.3145 55.8848 8.52539H55.7266L50.541 27H43.9316ZM77.8574 11.9531H88.9492V25.8047C85.9375 26.8359 82.627 27.3516 79.0176 27.3516C75.0566 27.3516 71.9922 26.2031 69.8242 23.9062C67.668 21.6094 66.5898 18.334 66.5898 14.0801C66.5898 9.93164 67.7734 6.70312 70.1406 4.39453C72.5078 2.08594 75.8242 0.931641 80.0898 0.931641C81.707 0.931641 83.2305 1.08398 84.6602 1.38867C86.1016 1.69336 87.3555 2.08008 88.4219 2.54883L86.2246 7.99805C84.373 7.08398 82.3398 6.62695 80.125 6.62695C78.0977 6.62695 76.5273 7.28906 75.4141 8.61328C74.3125 9.92578 73.7617 11.8066 73.7617 14.2559C73.7617 16.6582 74.2598 18.4922 75.2559 19.7578C76.2637 21.0117 77.7109 21.6387 79.5977 21.6387C80.6289 21.6387 81.5781 21.5391 82.4453 21.3398V17.3145H77.8574V11.9531Z" fill="white"/>
</svg>
